.
[Rec] 2 2009 720p BRrip 6ch avchd h264 subs 1h24m .mp4  [RipMinion]

I sought an HD-Lite 720p Torrent of the Movie "[Rec] 2 2009" with was BluRay/PS3/XBOX-ready and AVCHD-Compliant, but no luck.  So, I created one, for our media center and to share.

Details, Ratings, Reviews     :  http://www.imdb.com/title/tt1245112/  
Picture of Cover              :  http://image.bayimg.com/eapidaacn.jpg  *
~ RipMinion ~  Rare Torrents  :  http://1337x.org/user/RipMinion/  (ad-free)
~ RipMinion ~  Rare Torrents  :  
Azureus/Vuze Magnet Link      :  [ please refer to the two links directly above ]
*note: cover art pictures may not necessarily be precisely indicative.


Encoding "inspired by newartriot and the kingdom-release-group/spinoffs" for an Optimal blend of Quality, Compression, plus I add full AVCHD-Compliancy (eg. burn multiple movies to DVD-R disc then playback on BluRay Players & PS3 in HD quality - see below).

General
Complete name                 :  [Rec] 2 2009 720p BRrip 6ch avchd h264 subs 1h24m .mp4
Format                        :  MPEG-4
Format profile                :  Base Media
Codec ID                      :  isom
File size                     :  1.33 GiB
Duration                      :  1h 42m
Overall bit rate              :  2 271 Kbps
Compatibility                 :  BluRay/PS3/XBOX ready!

Video
Full AVCHD Compliant          :  Yes! So, no need to re-encode!
Format                        :  AVC (h264)
Format/Info                   :  Advanced Video Codec
Format profile                :  High@L3.1
Format settings, CABAC        :  Yes
Format settings, ReFrames     :  3 frames
Codec ID                      :  avc1
Codec ID/Info                 :  Advanced Video Coding
Bit rate mode                 :  Variable
Bit rate                      :  1 963 Kbps (-crf 23)
Maximum bit rate              :  20.0 Mbps
Width                         :  1 280 pixels
Height                        :  720 pixels (true 720p)
Display aspect ratio          :  16/9
Frame rate mode               :  Constant
Frame rate                    :  24 fps
Standard                      :  NTSC
Resolution                    :  24 bits
Colorimetry                   :  4:2:0
Scan type                     :  Progressive
Bits/(Pixel*Frame)            :  0.089
Stream size                   :  1.15 GiB (86%)
Writing library               :  x264 core 105 r1732 2b04482
Encoding settings             :  cabac=1 / ref=3 / deblock=0:-1:-1 / analyse=0x3:0x133 / me=umh / subme=10 / psy=1 / psy_rd=1.00:0.15 / mixed_ref=1 / me_range=64 / chroma_me=1 / trellis=2 / 8x8dct=1 / cqm=0 / deadzone=21,11 / fast_pskip=0 / chroma_qp_offset=-3 / threads=6 / sliced_threads=0 / nr=0 / decimate=1 / interlaced=0 / constrained_intra=0 / bframes=3 / b_pyramid=1 / b_adapt=2 / b_bias=0 / direct=3 / weightb=1 / open_gop=0 / weightp=0 / keyint=240 / keyint_min=24 / scenecut=40 / intra_refresh=0 / rc_lookahead=60 / rc=crf / mbtree=1 / crf=23.0 / qcomp=0.60 / qpmin=10 / qpmax=51 / qpstep=4 / vbv_maxrate=13000 / vbv_bufsize=13000 / crf_max=0.0 / ip_ratio=1.40 / aq=2:1.00 / nal_hrd=vbr

Audio Track #1 (2ch)
Audio Track Language          :  Spanish  (the original language of this movie)
Format                        :  AAC, Nero AAC Encoder v1.3.3.0
Format/Info                   :  Advanced Audio Codec
Format version                :  Version 4
Format profile                :  AAC-LC
Format settings, SBR          :  No
Format settings, PS           :  No
Codec ID                      :  40
Bit rate mode                 :  Variable
Bit rate                      :  122 Kbps (-q 0.4 = ~transparent)
Maximum bit rate              :  165 Kbps
Channel(s)                    :  2 channels (Dolby-PLII 5.1 Surround Sound matrix)
Channel positions             :  Front: L R (DPLII: Front: L C R, Rear: L R, LFE)
Sampling rate                 :  48.0 KHz
Resolution                    :  16 bits
Stream size                   :  73.1 MiB (5%)

Audio Track #2 (6ch)
Audio Track Language          :  Spanish  (the original language of this movie)
Format                        :  AAC, Nero AAC Encoder v1.3.3.0
Format/Info                   :  Advanced Audio Codec
Format version                :  Version 4
Format profile                :  AAC-LC (AAC-HE{v1} extension)
Format settings, SBR          :  Yes
Format settings, PS           :  No
Codec ID                      :  40
Bit rate mode                 :  Variable
Bit rate                      :  179 Kbps (-he -q 0.25 = ~transparent)
Maximum bit rate              :  239 Kbps
Channel(s)                    :  6 channels (5.1 Surround Sound)
Channel positions             :  Front: L C R, Rear: L R, LFE
Sampling rate                 :  48.0 KHz
Resolution                    :  16 bits
Stream size                   :  108 MiB (8%)

Subtitles, Single Track
Language                      :  English
Format                        :  Timed text
Codec ID                      :  tx3g
Bit rate                      :  55 bps (vbr)
Stream size                   :  32.2 KiB (0%)

Encode process details / FAQ  :  http://ripminion.pastebay.com/  
Subtitle Search Engines       :  http://www.opensubtitles.org/  http://subscene.com/filmsearch.aspx  http://www.addic7ed.com/  http://www.subtitlesource.org/  
Because, fr33dom i$n't fr33   :  http://eff.org/  http://1337x.org/  (ad-free)
More rare improved-cut movies :  http://fanedit.org/  then  http://fanedit.info/  
~ RipMinion ~  Rare Torrents  :  http://1337x.org/user/RipMinion/  (ad-free)
~ RipMinion ~  Rare Torrents  :  

Playback issues? Here's the easy fix:  http://www.videolan.org/vlc/  

For fast & easy Convert-to-DVD, Burn, and Play on any DVD Player from DVD-R or DVD+R_DL media, I recommend 'ConvertXtoDVD' software. Either buy or search for the Torrent.

For fast & easy Convert-to-AVCHD, Burn, and Playback on BluRay Players & PS3 in full 720p quality from a variety of disc types (DVD-R, DVD+R_DL, BD-R, BD-RE, etc.), I recommend 'multiAVCHD' freeware {link follows}.  It can auto-generate a slick customizable iTunes-style slide menu for multiple movies and burn everything to a single disc!  100% AVCHD Compliant Video, such as this, is quickly made ready (Non-compliant video is automatically re-encoded thus reducing quality, wasting lots of time, and bloating file size):

  http://www.videohelp.com/tools/multiAVCHD  
  http://ImgBurn.com/  
  http://www.videohelp.com/tools/YAMB         (optional, use this to remove unwanted audio track)


Please feel free to post constructive feedback, questions, comments, etc.

I really appreciate you helping seed at any capacity you can spare.

Enjoy the show,
~ RipMinion ~

.
